# xmcd
#
# Track frame offsets:
#	150
#	10832
#	18907
#	30935
#	41483
#	56363
#	66083
#	76706
#	90069
#	100970
#	111030
#	125183
#	135077
#	147811
#	157556
#	175584
#	183399
#	198807
#	211386
#	220223
#	233255
#	248045
#	257598
#	268077
#	278917
#
# Disc length: 3895
#
# Revision: 1
# Processed by: cddbd v1.5.1PL0 Copyright (c) Steve Scherf et al.
# Submitted via: dBpowerAMP V4.0
# Normalized: r0:TDELIM( - )
#
DISCID=310f3519
DTITLE=Various Artist - 100 Country Hits CD 2
DYEAR=1900
DGENRE=Country
TTITLE0=Hank Lockin - I Born to Ramble
TTITLE1=Roger Miller - Dang Me
TTITLE2=Jimmy Dear - Picking Sweethearts
TTITLE3=Johnny Cash - You Wing Again
TTITLE4=Frankie Laine - Sixteen Tons
TTITLE5=Eddic Jones - Deep in the Heart of Texas
TTITLE6=Patsy Claine - I Don´t Wanna
TTITLE7=Patti Page - Enneessee Waltz
TTITLE8=Hank Lockin - Send Me The PillowThat You Dream On
TTITLE9=Conway Twitty - It´s Only Make Believe
TTITLE10=Feddy Fender - Wasted Days And Wasted Nights
TTITLE11=Johnny Cash - Rock Island Line
TTITLE12=George Jones - I Love You Because
TTITLE13=Jerry Lee Lewis - Lovesick Blues
TTITLE14=Ricky Nelson - Garden Party
TTITLE15=Johnny Cash - Hey Good Looking
TTITLE16=Kenny Rdgers - For the Goods Times
TTITLE17=Oak Ridge Boys - You´ll Never Walk Alone
TTITLE18=Sandy Posey - Barn A Woman
TTITLE19=Donna Fargo - Daddy
TTITLE20=Billie Joe Spears - Crystal Chandeliers
TTITLE21=Ned Miller - From a Jack to King
TTITLE22=Patsy Claine - I Can see An Angel
TTITLE23=Sammi Smith - Help Me Make it Through the Night
TTITLE24=Johnny Tilotson - I´m So Lonesome I Could Cry
EXTD=100 Country Hits CD 2
EXTT0=
EXTT1=
EXTT2=
EXTT3=
EXTT4=
EXTT5=
EXTT6=
EXTT7=
EXTT8=
EXTT9=
EXTT10=
EXTT11=
EXTT12=
EXTT13=
EXTT14=
EXTT15=
EXTT16=
EXTT17=
EXTT18=
EXTT19=
EXTT20=
EXTT21=
EXTT22=
EXTT23=
EXTT24=
PLAYORDER=
